<svg width="220" height="43" viewBox="0 0 220 43" fill="none" xmlns="http://www.w3.org/2000/svg">
<path d="M41.049 18.7721V12.5825C41.049 11.0585 40.2518 9.67517 38.6811 9.67517C37.1336 9.67517 36.2193 11.0585 36.2193 12.5825V18.7721H33.3589V7.19006H36.0082L36.2193 8.59673C36.8287 7.42439 38.1652 7.00248 39.2672 7.00248C40.6504 7.00248 42.0337 7.56519 42.6902 9.15941C43.7218 7.51827 45.0583 7.04929 46.5587 7.04929C49.8411 7.04929 51.4587 9.06571 51.4587 12.5356V18.7721H48.5985V12.5356C48.5985 11.0116 47.9654 9.72209 46.418 9.72209C44.8705 9.72209 43.9094 11.0585 43.9094 12.5825V18.7721H41.049Z" fill="#42B459"/>
<path d="M56.1025 14.0128C56.29 15.4429 57.5326 16.4744 59.549 16.4744C60.604 16.4744 61.9874 16.0758 62.6438 15.3959L64.4725 17.2012C63.2534 18.4674 61.2604 19.0769 59.5021 19.0769C55.5163 19.0769 53.1484 16.6152 53.1484 12.9108C53.1484 9.39391 55.5398 6.86186 59.2911 6.86186C63.1595 6.86186 65.5746 9.25326 65.129 14.0128H56.1025ZM62.3858 11.6447C62.1984 10.1442 61.0261 9.39391 59.3848 9.39391C57.8375 9.39391 56.5715 10.1442 56.1494 11.6447H62.3858Z" fill="#42B459"/>
<path d="M69.5377 14.0128C69.7253 15.4429 70.9678 16.4744 72.9842 16.4744C74.0393 16.4744 75.4226 16.0758 76.079 15.3959L77.9077 17.2012C76.6886 18.4674 74.6958 19.0769 72.9373 19.0769C68.9516 19.0769 66.5836 16.6152 66.5836 12.9108C66.5836 9.39391 68.975 6.86186 72.7263 6.86186C76.5948 6.86186 79.0096 9.25326 78.5643 14.0128H69.5377ZM75.8212 11.6447C75.6335 10.1442 74.4613 9.39391 72.8201 9.39391C71.2727 9.39391 70.0065 10.1442 69.5846 11.6447H75.8212Z" fill="#42B459"/>
<path d="M84.0748 3.95453V7.23699H87.2636V9.69864H84.0515V14.6926C84.0515 15.7946 84.661 16.3339 85.552 16.3339C85.9974 16.3339 86.5133 16.1931 86.9353 15.982L87.7324 18.4205C86.9118 18.7487 86.2319 18.8894 85.3645 18.9129C82.8558 19.0065 81.2146 17.5763 81.2146 14.6926V9.69864H79.0575V7.23699H81.2146V4.25929L84.0748 3.95453Z" fill="#42B459"/>
<path d="M92.2812 3.95453C92.2812 6.18186 88.905 6.18186 88.905 3.95453C88.905 1.7272 92.2812 1.72723 92.2812 3.95453ZM89.163 7.16659V18.7721H92.0234V7.16659H89.163Z" fill="#42B459"/>
<path d="M102.879 18.7721V12.7231C102.879 10.9648 101.918 9.62839 100.089 9.62839C98.3303 9.62839 97.1348 11.1055 97.1348 12.8639V18.7721H94.2978V7.19007H96.8533L97.041 8.76081C98.2133 7.61212 99.3856 7.02596 100.839 7.02596C103.559 7.02596 105.739 9.06571 105.739 12.6997V18.7721H102.879Z" fill="#42B459"/>
<path d="M117.041 6.0412L119.151 7.63545L117.862 9.27674C118.753 10.2848 119.081 11.4336 119.081 12.6997C119.081 14.1298 118.541 16.1462 116.642 17.0138C118.565 17.9749 119.034 19.3581 119.034 20.8355C119.034 24.0239 116.595 25.9934 113.243 25.9934C109.89 25.9934 107.381 23.9535 107.381 20.8355H110.219C110.219 22.336 111.602 23.3206 113.243 23.3206C114.884 23.3206 116.174 22.4296 116.174 20.8355C116.174 19.2414 114.673 18.5143 113.243 18.5143C109.632 18.5143 107.381 16.3105 107.381 12.6997C107.381 9.0889 110.007 6.83838 113.243 6.83838C114.157 6.83838 115.095 6.95556 115.892 7.49479L117.041 6.0412ZM110.219 12.6997C110.219 14.7161 111.578 15.9119 113.243 15.9119C114.884 15.9119 116.244 14.6926 116.244 12.6997C116.244 10.7067 114.884 9.44084 113.243 9.44084C111.578 9.44084 110.219 10.6834 110.219 12.6997Z" fill="#42B459"/>
<path d="M124.263 7.21351L124.474 8.54978C125.365 7.11966 126.56 6.90864 127.733 6.90864C128.929 6.90864 130.077 7.37761 130.71 8.01058L129.421 10.4958C128.835 10.0035 128.296 9.74557 127.358 9.74557C125.857 9.74557 124.474 10.5427 124.474 12.6762V18.7721H121.614V7.21351H124.263Z" fill="#344A5D"/>
<path d="M142.575 13.0044C142.575 16.3339 140.3 19.0299 136.549 19.0299C132.798 19.0299 130.547 16.3339 130.547 13.0044C130.547 9.69864 132.845 6.97904 136.526 6.97904C140.206 6.97904 142.575 9.69864 142.575 13.0044ZM133.407 13.0044C133.407 14.763 134.462 16.404 136.549 16.404C138.636 16.404 139.691 14.763 139.691 13.0044C139.691 11.2696 138.472 9.58147 136.549 9.58147C134.486 9.58147 133.407 11.2696 133.407 13.0044Z" fill="#344A5D"/>
<path d="M155.798 13.0044C155.798 16.3339 153.524 19.0299 149.773 19.0299C146.022 19.0299 143.771 16.3339 143.771 13.0044C143.771 9.69864 146.069 6.97904 149.749 6.97904C153.43 6.97904 155.798 9.69864 155.798 13.0044ZM146.631 13.0044C146.631 14.763 147.686 16.404 149.773 16.404C151.86 16.404 152.915 14.763 152.915 13.0044C152.915 11.2696 151.696 9.58147 149.773 9.58147C147.71 9.58147 146.631 11.2696 146.631 13.0044Z" fill="#344A5D"/>
<path d="M164.755 18.7721V12.5825C164.755 11.0585 163.958 9.67517 162.387 9.67517C160.84 9.67517 159.926 11.0585 159.926 12.5825V18.7721H157.065V7.19006H159.715L159.926 8.59673C160.535 7.42439 161.872 7.00248 162.974 7.00248C164.357 7.00248 165.74 7.56519 166.397 9.15941C167.428 7.51827 168.765 7.04929 170.265 7.04929C173.548 7.04929 175.165 9.06571 175.165 12.5356V18.7721H172.305V12.5356C172.305 11.0116 171.672 9.72209 170.125 9.72209C168.577 9.72209 167.616 11.0585 167.616 12.5825V18.7721H164.755Z" fill="#344A5D"/>
<path d="M189.328 7.19006V18.7721H188.179V16.3105C187.054 18.1157 185.319 18.9595 183.443 18.9595C180.208 18.9595 177.558 16.5213 177.558 12.981C177.558 9.44058 180.208 7.04929 183.443 7.04929C185.319 7.04929 187.218 7.91685 188.179 9.72209V7.19006H189.328ZM178.707 12.981C178.707 15.8884 180.817 17.8344 183.443 17.8344C189.89 17.8344 189.89 8.15135 183.443 8.15135C180.817 8.15135 178.707 10.0738 178.707 12.981Z" fill="#A2A1A2"/>
<path d="M192.212 23.6019V7.19007H193.338V9.93315C194.252 8.17465 196.104 7.02596 198.355 7.02596C201.497 7.14314 203.982 9.25326 203.982 12.981C203.982 16.873 201.356 18.983 198.097 18.983C196.128 18.983 194.299 18.0219 193.314 16.0993V23.6019H192.212ZM202.833 12.981C202.833 9.72209 200.723 8.12787 198.097 8.12787C195.401 8.12787 193.408 10.1676 193.408 13.0044C193.408 15.8412 195.448 17.8811 198.097 17.8811C200.723 17.8811 202.833 16.2401 202.833 12.981Z" fill="#A2A1A2"/>
<path d="M206.562 23.6019V7.19007H207.688V9.93315C208.602 8.17465 210.454 7.02596 212.705 7.02596C215.847 7.14314 218.332 9.25326 218.332 12.981C218.332 16.873 215.706 18.983 212.447 18.983C210.478 18.983 208.649 18.0219 207.664 16.0993V23.6019H206.562ZM217.183 12.981C217.183 9.72209 215.073 8.12787 212.447 8.12787C209.751 8.12787 207.758 10.1676 207.758 13.0044C207.758 15.8412 209.798 17.8811 212.447 17.8811C215.073 17.8811 217.183 16.2401 217.183 12.981Z" fill="#A2A1A2"/>
<path d="M19.3744 8.95643C20.1647 8.42073 21.12 8.10526 22.1447 8.10526C23.1579 8.10526 24.1015 8.41199 24.886 8.93608C24.7152 4.61123 21.1548 1.15789 16.7895 1.15789H13.8947V6.65789H16.7895C18.1239 6.65789 19.2239 7.66228 19.3744 8.95643Z" fill="#42B459"/>
<path d="M19.3748 17.0962C19.2243 18.3903 18.1243 19.3947 16.7899 19.3947H13.8952V24.8947H16.7899C21.1552 24.8947 24.7156 21.4414 24.8864 17.1165C24.1019 17.6406 23.1583 17.9474 22.1452 17.9474C21.1204 17.9474 20.1651 17.6319 19.3748 17.0962Z" fill="#42B459"/>
<path d="M22.1447 9.66839C20.2933 9.66839 18.7868 11.1747 18.7868 13.0263C18.7868 14.8779 20.2933 16.3842 22.1447 16.3842C23.9962 16.3842 25.5027 14.8779 25.5027 13.0263C25.5027 11.1747 23.9962 9.66839 22.1447 9.66839Z" fill="#42B459"/>
<path d="M6.67854 17.0962C5.88828 17.6319 4.93307 17.9474 3.90833 17.9474C2.89518 17.9474 1.9514 17.6406 1.16693 17.1165C1.33769 21.4414 4.89532 24.8947 9.2636 24.8947H12.1583V19.3947H9.2636C7.92901 19.3947 6.82907 18.3903 6.67854 17.0962Z" fill="#344A5D"/>
<path d="M9.2636 1.15789C4.89532 1.15789 1.33769 4.61123 1.16693 8.93608C1.9514 8.41199 2.89518 8.10526 3.90833 8.10526C4.93307 8.10526 5.88828 8.42073 6.67854 8.95643C6.82907 7.66228 7.92901 6.65789 9.2636 6.65789H12.1583V1.15789H9.2636Z" fill="#344A5D"/>
<path d="M3.90791 9.66839C2.05644 9.66839 0.549988 11.1747 0.549988 13.0263C0.549988 14.8779 2.05644 16.3842 3.90791 16.3842C5.75938 16.3842 7.26583 14.8779 7.26583 13.0263C7.26583 11.1747 5.75938 9.66839 3.90791 9.66839Z" fill="#354A5C"/>
<path d="M142.526 38.2666C142.082 37.9226 141.743 37.5182 141.51 37.0526H141.399V38.6711H139.733V26.7706H141.399V31.7686H141.51C141.732 31.3247 142.06 30.9335 142.494 30.5949C142.928 30.2563 143.51 30.0866 144.239 30.0866C144.969 30.0866 145.596 30.2749 146.12 30.6499C146.643 31.0256 147.04 31.5416 147.31 32.1971C147.579 32.8533 147.714 33.6041 147.714 34.4501C147.714 35.2861 147.579 36.0322 147.31 36.6876C147.04 37.3439 146.646 37.8568 146.127 38.2271C145.609 38.5975 144.99 38.7819 144.271 38.7819C143.551 38.7819 142.97 38.6106 142.526 38.2666ZM145.453 36.5606C145.839 35.9895 146.032 35.2807 146.032 34.4346C146.032 33.5986 145.842 32.8982 145.461 32.3318C145.08 31.7663 144.504 31.4835 143.732 31.4835C142.98 31.4835 142.407 31.7686 142.01 32.3396C141.614 32.9114 141.415 33.6149 141.415 34.4501C141.415 35.286 141.614 35.9895 142.01 36.5605C142.407 37.1315 142.98 37.4174 143.732 37.4174C144.493 37.4174 145.067 37.1316 145.453 36.5606Z" fill="#35495D"/>
<path d="M152.046 40.8528C151.887 41.1224 151.62 41.382 151.245 41.6307C150.869 41.8786 150.38 42.0033 149.777 42.0033C149.46 42.0033 149.121 41.9607 148.762 41.8763V40.6862C149.015 40.7281 149.237 40.7498 149.428 40.7498C149.777 40.7498 150.057 40.6862 150.269 40.5592C150.48 40.4321 150.647 40.2655 150.768 40.0595C150.89 39.8534 151.03 39.5597 151.189 39.1785L151.538 38.3379L148.46 30.309H150.158L152.316 36.5133H152.411L154.68 30.309H156.362L152.538 39.8456C152.368 40.247 152.205 40.5832 152.046 40.8528Z" fill="#35495D"/>
<path d="M204.205 34.9735H208.297V34.4221C208.297 32.9309 207.938 31.7895 207.219 30.9976C206.502 30.2083 205.528 29.8125 204.304 29.8125C203.379 29.8125 202.602 30.0286 201.973 30.4633C201.344 30.8981 200.878 31.4639 200.571 32.1586C200.263 32.8556 200.112 33.6036 200.112 34.4052C200.112 35.1969 200.263 35.9401 200.571 36.6371C200.878 37.3317 201.344 37.8976 201.973 38.3323C202.602 38.7671 203.374 38.9832 204.287 38.9832C205.334 38.9832 206.191 38.7112 206.859 38.1648C207.53 37.6183 207.979 36.9237 208.215 36.0761H206.225C206.058 36.4671 205.808 36.7755 205.475 37.0038C205.14 37.2321 204.734 37.3463 204.253 37.3463C203.831 37.3463 203.454 37.2443 203.126 37.0378C202.428 36.598 202.149 35.8386 202.095 35.0461C202.041 34.2463 202.035 33.3354 202.343 32.5829C202.439 32.3485 202.571 32.1293 202.743 31.9424C203.126 31.5246 203.641 31.3158 204.287 31.3158C204.89 31.3158 205.375 31.5029 205.749 31.8744C206.123 32.2484 206.32 32.8362 206.342 33.6377H204.205L204.205 34.9735Z" fill="#030303"/>
<path d="M213.558 34.9735H217.651V34.4221C217.651 32.9309 217.291 31.7895 216.572 30.9976C215.856 30.2083 214.882 29.8125 213.658 29.8125C212.732 29.8125 211.955 30.0286 211.326 30.4633C210.697 30.8981 210.231 31.4639 209.925 32.1586C209.617 32.8556 209.466 33.6036 209.466 34.4052C209.466 35.1969 209.617 35.9401 209.925 36.6371C210.231 37.3317 210.697 37.8976 211.326 38.3323C211.955 38.7671 212.728 38.9832 213.641 38.9832C214.688 38.9832 215.545 38.7112 216.213 38.1648C216.883 37.6183 217.332 36.9237 217.568 36.0761H215.579C215.411 36.4671 215.161 36.7755 214.829 37.0038C214.493 37.2321 214.088 37.3463 213.607 37.3463C213.184 37.3463 212.808 37.2443 212.48 37.0378C211.782 36.598 211.502 35.8386 211.449 35.0461C211.395 34.2463 211.389 33.3354 211.697 32.5829C211.793 32.3485 211.925 32.1293 212.096 31.9424C212.48 31.5246 212.995 31.3158 213.641 31.3158C214.243 31.3158 214.729 31.5029 215.103 31.8744C215.477 32.2484 215.674 32.8362 215.696 33.6377H213.558L213.558 34.9735Z" fill="#030303"/>
<path d="M168.422 30.0286V31.498H168.286C168.097 31.0754 167.783 30.6892 167.344 30.337C166.904 29.9873 166.299 29.8124 165.532 29.8124C164.405 29.8124 163.526 30.2326 162.892 31.073C162.256 31.9133 161.94 33.0256 161.94 34.4051C161.94 35.7652 162.251 36.8678 162.875 37.713C163.499 38.5606 164.366 38.9832 165.481 38.9832C166.248 38.9832 166.856 38.8059 167.303 38.4489C167.747 38.0919 168.075 37.6863 168.286 37.2297H168.422V38.8497H170.46V30.0286L168.422 30.0286ZM167.844 36.4598C167.611 36.8144 167.31 37.0597 166.941 37.1933C166.717 37.2734 166.472 37.3123 166.2 37.3123C165.464 37.3123 164.913 37.0281 164.546 36.4598C164.177 35.8939 163.995 35.2018 163.995 34.3906C163.995 33.577 164.174 32.8897 164.536 32.3262C164.898 31.7627 165.452 31.4835 166.2 31.4835C166.472 31.4835 166.717 31.5223 166.941 31.6025C167.31 31.7336 167.611 31.9741 167.844 32.3262C168.218 32.8897 168.405 33.577 168.405 34.3906C168.405 35.2018 168.218 35.8939 167.844 36.4598Z" fill="#030303"/>
<path d="M179.446 38.8505H177.192L174.2 34.5892H174.1V38.8505H172.079V26.4202H174.1V34.0385H175.921L179.446 38.8505Z" fill="#030303"/>
<path d="M185.962 30.0286V35.0245C185.962 35.6802 185.795 36.2243 185.459 36.6542C185.209 36.9747 184.874 37.1739 184.454 37.2565C184.313 37.2807 184.165 37.2953 184.007 37.2953C183.417 37.2953 182.955 37.0961 182.62 36.6954C182.288 36.2947 182.12 35.7361 182.12 35.0245V30.0286H180.097V35.3402C180.097 35.9328 180.192 36.506 180.381 37.0621C180.57 37.6183 180.901 38.0846 181.367 38.4562C181.836 38.8302 182.453 39.0173 183.223 39.0173C183.869 39.0173 184.415 38.8545 184.867 38.5315C185.319 38.2085 185.649 37.8199 185.863 37.3633H185.962V38.8497H188V30.0286H185.962Z" fill="#030303"/>
<path d="M194.113 30.0286C193.513 30.0286 193.02 30.1646 192.636 30.4391C192.25 30.7111 191.985 31.0438 191.842 31.4324H191.726V30.0286H189.719V38.8497H191.726V34.2546C191.726 33.3972 191.898 32.7852 192.243 32.4185C192.588 32.0517 193.1 31.8672 193.78 31.8672C193.97 31.8672 194.125 31.8744 194.247 31.8914C194.37 31.9085 194.514 31.9449 194.681 32.0007L194.766 30.1136C194.543 30.0577 194.324 30.0286 194.113 30.0286Z" fill="#030303"/>
<path d="M198.907 37.4458C198.519 37.4458 198.234 37.3876 198.057 37.271C197.877 37.1544 197.768 36.9941 197.729 36.795C197.69 36.5934 197.671 36.2873 197.671 35.8769V26.32H195.65V36.2606C195.65 36.829 195.699 37.2928 195.794 37.6547C195.886 38.0166 196.119 38.3178 196.486 38.5582C196.852 38.7962 197.421 38.9152 198.191 38.9152C198.657 38.9152 199.07 38.8837 199.427 38.8157V37.4118C199.225 37.4362 199.053 37.4458 198.907 37.4458Z" fill="#030303"/>
<path d="M178.991 30.0855H176.738V32.1215H178.991V30.0855Z" fill="#030303"/>
</svg>
