<svg width="168" height="32" viewBox="0 0 168 32" fill="none" xmlns="http://www.w3.org/2000/svg">
<g clip-path="url(#clip0_45_15)">
<path d="M31.2161 14.2754V9.56847C31.2161 8.40953 30.6098 7.35756 29.4154 7.35756C28.2386 7.35756 27.5433 8.40953 27.5433 9.56847V14.2754H25.368V5.46775H27.3828L27.5433 6.53746C28.0068 5.64594 29.023 5.3251 29.8611 5.3251C30.913 5.3251 31.9649 5.75302 32.4641 6.96535C33.2487 5.71733 34.2649 5.3607 35.406 5.3607C37.9021 5.3607 39.1323 6.8941 39.1323 9.53278V14.2754H36.9572V9.53278C36.9572 8.37385 36.4757 7.39325 35.299 7.39325C34.1222 7.39325 33.3913 8.40953 33.3913 9.56847V14.2754H31.2161Z" fill="#42B459"/>
<path d="M42.6636 10.6561C42.8062 11.7437 43.7511 12.5281 45.2845 12.5281C46.0868 12.5281 47.1388 12.225 47.638 11.708L49.0286 13.0808C48.1016 14.0437 46.586 14.5072 45.2489 14.5072C42.2178 14.5072 40.4171 12.6352 40.4171 9.81816C40.4171 7.14368 42.2357 5.21816 45.0884 5.21816C48.0302 5.21816 49.8667 7.03672 49.5279 10.6561H42.6636ZM47.4418 8.8553C47.2993 7.71422 46.4078 7.14368 45.1597 7.14368C43.983 7.14368 43.0202 7.71422 42.6993 8.8553H47.4418Z" fill="#42B459"/>
<path d="M52.8805 10.6561C53.0231 11.7437 53.9681 12.5281 55.5015 12.5281C56.3038 12.5281 57.3557 12.225 57.8549 11.708L59.2455 13.0808C58.3185 14.0437 56.803 14.5072 55.4658 14.5072C52.4348 14.5072 50.634 12.6352 50.634 9.81816C50.634 7.14368 52.4526 5.21816 55.3053 5.21816C58.2471 5.21816 60.0835 7.03672 59.7448 10.6561H52.8805ZM57.6588 8.8553C57.5161 7.71422 56.6247 7.14368 55.3767 7.14368C54.1999 7.14368 53.237 7.71422 52.9162 8.8553H57.6588Z" fill="#42B459"/>
<path d="M63.9354 3.00726V5.50343H66.3603V7.37542H63.9177V11.1731C63.9177 12.0111 64.3812 12.4213 65.0588 12.4213C65.3975 12.4213 65.7898 12.3142 66.1107 12.1536L66.7169 14.008C66.0928 14.2576 65.5758 14.3646 64.9162 14.3825C63.0084 14.4536 61.7604 13.3661 61.7604 11.1731V7.37542H60.12V5.50343H61.7604V3.23901L63.9354 3.00726Z" fill="#42B459"/>
<path d="M70.176 3.00726C70.176 4.70104 67.6086 4.70104 67.6086 3.00726C67.6086 1.31347 70.176 1.31349 70.176 3.00726ZM67.8048 5.44989V14.2754H69.98V5.44989H67.8048Z" fill="#42B459"/>
<path d="M78.2351 14.2754V9.67541C78.2351 8.33828 77.5042 7.32199 76.1135 7.32199C74.7762 7.32199 73.8671 8.44524 73.8671 9.78248V14.2754H71.7096V5.46775H73.653L73.7957 6.66223C74.6872 5.7887 75.5787 5.34295 76.6841 5.34295C78.7523 5.34295 80.4104 6.8941 80.4104 9.65758V14.2754H78.2351Z" fill="#42B459"/>
<path d="M89.0048 4.59408L90.6096 5.80644L89.6289 7.05457C90.3065 7.82116 90.5561 8.6948 90.5561 9.65758C90.5561 10.7451 90.1459 12.2785 88.7017 12.9383C90.1637 13.6692 90.5204 14.721 90.5204 15.8445C90.5204 18.2692 88.666 19.7669 86.1164 19.7669C83.5668 19.7669 81.6592 18.2157 81.6592 15.8445H83.8167C83.8167 16.9856 84.8685 17.7343 86.1164 17.7343C87.3643 17.7343 88.3453 17.0567 88.3453 15.8445C88.3453 14.6323 87.2042 14.0794 86.1164 14.0794C83.3708 14.0794 81.6592 12.4034 81.6592 9.65758C81.6592 6.91173 83.6561 5.20031 86.1164 5.20031C86.8119 5.20031 87.5249 5.28942 88.1312 5.69948L89.0048 4.59408ZM83.8167 9.65758C83.8167 11.191 84.8507 12.1003 86.1164 12.1003C87.3646 12.1003 88.3986 11.1731 88.3986 9.65758C88.3986 8.14203 87.3646 7.17937 86.1164 7.17937C84.8507 7.17937 83.8167 8.12426 83.8167 9.65758Z" fill="#42B459"/>
<path d="M94.4967 5.48558L94.6573 6.50175C95.3349 5.41421 96.244 5.25373 97.1355 5.25373C98.0448 5.25373 98.9185 5.61037 99.3998 6.09171L98.4193 7.98164C97.9735 7.60726 97.5635 7.4111 96.8502 7.4111C95.7091 7.4111 94.6573 8.01732 94.6573 9.63972V14.2754H92.4822V5.48558H94.4967Z" fill="#344A5D"/>
<path d="M108.422 9.88931C108.422 12.4213 106.693 14.4715 103.84 14.4715C100.987 14.4715 99.2756 12.4213 99.2756 9.88931C99.2756 7.37542 101.023 5.30727 103.822 5.30727C106.621 5.30727 108.422 7.37542 108.422 9.88931ZM101.451 9.88931C101.451 11.2267 102.253 12.4746 103.84 12.4746C105.427 12.4746 106.229 11.2267 106.229 9.88931C106.229 8.57003 105.302 7.28631 103.84 7.28631C102.271 7.28631 101.451 8.57003 101.451 9.88931Z" fill="#344A5D"/>
<path d="M118.478 9.88931C118.478 12.4213 116.749 14.4715 113.896 14.4715C111.043 14.4715 109.332 12.4213 109.332 9.88931C109.332 7.37542 111.079 5.30727 113.878 5.30727C116.677 5.30727 118.478 7.37542 118.478 9.88931ZM111.507 9.88931C111.507 11.2267 112.309 12.4746 113.896 12.4746C115.483 12.4746 116.285 11.2267 116.285 9.88931C116.285 8.57003 115.358 7.28631 113.896 7.28631C112.327 7.28631 111.507 8.57003 111.507 9.88931Z" fill="#344A5D"/>
<path d="M125.29 14.2754V9.56847C125.29 8.40953 124.684 7.35756 123.489 7.35756C122.312 7.35756 121.617 8.40953 121.617 9.56847V14.2754H119.442V5.46775H121.456L121.617 6.53746C122.08 5.64594 123.097 5.3251 123.935 5.3251C124.987 5.3251 126.039 5.75302 126.538 6.96535C127.322 5.71733 128.339 5.3607 129.48 5.3607C131.976 5.3607 133.206 6.8941 133.206 9.53278V14.2754H131.031V9.53278C131.031 8.37385 130.55 7.39325 129.373 7.39325C128.196 7.39325 127.465 8.40953 127.465 9.56847V14.2754H125.29Z" fill="#344A5D"/>
<path d="M143.976 5.46775V14.2754H143.102V12.4034C142.247 13.7762 140.927 14.4179 139.501 14.4179C137.04 14.4179 135.026 12.5638 135.026 9.87148C135.026 7.17917 137.04 5.36069 139.501 5.36069C140.927 5.36069 142.371 6.02043 143.102 7.39325V5.46775H143.976ZM135.899 9.87148C135.899 12.0825 137.504 13.5624 139.501 13.5624C144.404 13.5624 144.404 6.19876 139.501 6.19876C137.504 6.19876 135.899 7.66069 135.899 9.87148Z" fill="#A2A1A2"/>
<path d="M146.17 17.9482V5.46775H147.025V7.55375C147.721 6.21648 149.129 5.34295 150.841 5.34295C153.23 5.43206 155.12 7.03672 155.12 9.87148C155.12 12.8312 153.123 14.4358 150.645 14.4358C149.147 14.4358 147.756 13.7049 147.008 12.2428V17.9482H146.17ZM154.246 9.87148C154.246 7.39325 152.642 6.18091 150.645 6.18091C148.594 6.18091 147.079 7.73205 147.079 9.88931C147.079 12.0466 148.63 13.5978 150.645 13.5978C152.642 13.5978 154.246 12.3499 154.246 9.87148Z" fill="#A2A1A2"/>
<path d="M157.082 17.9482V5.46775H157.938V7.55375C158.633 6.21648 160.042 5.34295 161.753 5.34295C164.143 5.43206 166.032 7.03672 166.032 9.87148C166.032 12.8312 164.035 14.4358 161.557 14.4358C160.06 14.4358 158.669 13.7049 157.92 12.2428V17.9482H157.082ZM165.159 9.87148C165.159 7.39325 163.554 6.18091 161.557 6.18091C159.507 6.18091 157.991 7.73205 157.991 9.88931C157.991 12.0466 159.543 13.5978 161.557 13.5978C163.554 13.5978 165.159 12.3499 165.159 9.87148Z" fill="#A2A1A2"/>
<path d="M14.7335 6.811C15.3344 6.40362 16.0609 6.16372 16.8402 6.16372C17.6107 6.16372 18.3282 6.39697 18.9248 6.79552C18.7949 3.50665 16.0874 0.880531 12.7677 0.880531H10.5664V5.06305H12.7677C13.7825 5.06305 14.619 5.82685 14.7335 6.811Z" fill="#42B459"/>
<path d="M14.7338 13.001C14.6193 13.9851 13.7829 14.7489 12.7681 14.7489H10.5668V18.9314H12.7681C16.0877 18.9314 18.7953 16.3053 18.9251 13.0164C18.3286 13.415 17.611 13.6482 16.8406 13.6482C16.0613 13.6482 15.3348 13.4083 14.7338 13.001Z" fill="#42B459"/>
<path d="M16.8402 7.35241C15.4322 7.35241 14.2866 8.4979 14.2866 9.90598C14.2866 11.3141 15.4322 12.4595 16.8402 12.4595C18.2482 12.4595 19.3937 11.3141 19.3937 9.90598C19.3937 8.4979 18.2482 7.35241 16.8402 7.35241Z" fill="#42B459"/>
<path d="M5.07868 13.001C4.47772 13.4083 3.75132 13.6482 2.97205 13.6482C2.20159 13.6482 1.48389 13.415 0.887329 13.0164C1.01719 16.3053 3.72262 18.9314 7.04451 18.9314H9.24584V14.7489H7.04451C6.02961 14.7489 5.19315 13.9851 5.07868 13.001Z" fill="#344A5D"/>
<path d="M7.04451 0.880531C3.72262 0.880531 1.01719 3.50665 0.887329 6.79552C1.48389 6.39697 2.20159 6.16372 2.97205 6.16372C3.75132 6.16372 4.47772 6.40362 5.07868 6.811C5.19315 5.82685 6.02961 5.06305 7.04451 5.06305H9.24584V0.880531H7.04451Z" fill="#344A5D"/>
<path d="M2.97178 7.35241C1.56381 7.35241 0.418213 8.4979 0.418213 9.90598C0.418213 11.3141 1.56381 12.4595 2.97178 12.4595C4.37974 12.4595 5.52534 11.3141 5.52534 9.90598C5.52534 8.4979 4.37974 7.35241 2.97178 7.35241Z" fill="#354A5C"/>
<path d="M108.385 29.1584C108.047 28.8968 107.79 28.5892 107.612 28.2352H107.528V29.466H106.261V20.4161H107.528V24.217H107.612C107.782 23.8794 108.031 23.5818 108.361 23.3243C108.691 23.0669 109.133 22.9378 109.688 22.9378C110.243 22.9378 110.72 23.081 111.118 23.3662C111.516 23.6519 111.818 24.0443 112.023 24.5428C112.228 25.0418 112.331 25.6127 112.331 26.2561C112.331 26.8918 112.228 27.4592 112.023 27.9577C111.818 28.4567 111.518 28.8467 111.124 29.1284C110.73 29.41 110.259 29.5502 109.712 29.5502C109.165 29.5502 108.723 29.42 108.385 29.1584ZM110.611 27.861C110.905 27.4268 111.051 26.8877 111.051 26.2443C111.051 25.6086 110.907 25.0759 110.617 24.6453C110.327 24.2152 109.889 24.0001 109.302 24.0001C108.731 24.0001 108.295 24.2169 107.993 24.6512C107.691 25.086 107.541 25.6209 107.541 26.2561C107.541 26.8918 107.691 27.4268 107.993 27.861C108.295 28.2952 108.731 28.5126 109.302 28.5126C109.881 28.5126 110.317 28.2953 110.611 27.861Z" fill="#35495D"/>
<path d="M115.625 31.1251C115.504 31.3301 115.301 31.5275 115.016 31.7166C114.73 31.9052 114.358 32 113.899 32C113.658 32 113.401 31.9676 113.127 31.9034V30.9984C113.32 31.0302 113.489 31.0467 113.634 31.0467C113.899 31.0467 114.112 30.9984 114.273 30.9018C114.434 30.8052 114.561 30.6785 114.653 30.5218C114.746 30.3651 114.852 30.1418 114.973 29.8519L115.239 29.2126L112.897 23.1069H114.189L115.83 27.8251H115.902L117.628 23.1069H118.907L115.999 30.3592C115.87 30.6644 115.746 30.92 115.625 31.1251Z" fill="#35495D"/>
<path d="M155.289 26.6541H158.401V26.2348C158.401 25.1008 158.128 24.2328 157.581 23.6306C157.037 23.0304 156.296 22.7294 155.365 22.7294C154.661 22.7294 154.07 22.8938 153.592 23.2243C153.114 23.5549 152.759 23.9853 152.526 24.5135C152.292 25.0435 152.177 25.6124 152.177 26.2219C152.177 26.824 152.292 27.3892 152.526 27.9192C152.759 28.4474 153.114 28.8778 153.592 29.2084C154.07 29.539 154.658 29.7033 155.352 29.7033C156.148 29.7033 156.8 29.4965 157.308 29.081C157.818 28.6654 158.159 28.1371 158.339 27.4926H156.826C156.699 27.7899 156.508 28.0245 156.255 28.1981C156 28.3717 155.692 28.4585 155.326 28.4585C155.005 28.4585 154.719 28.381 154.469 28.224C153.938 27.8895 153.726 27.312 153.685 26.7093C153.644 26.1011 153.639 25.4084 153.874 24.8362C153.947 24.658 154.047 24.4912 154.178 24.3491C154.469 24.0314 154.861 23.8726 155.352 23.8726C155.81 23.8726 156.18 24.0148 156.464 24.2974C156.748 24.5818 156.898 25.0288 156.915 25.6383H155.289L155.289 26.6541Z" fill="#030303"/>
<path d="M162.402 26.6541H165.514V26.2348C165.514 25.1008 165.241 24.2328 164.694 23.6306C164.15 23.0304 163.409 22.7294 162.478 22.7294C161.774 22.7294 161.183 22.8938 160.705 23.2243C160.227 23.5549 159.872 23.9853 159.639 24.5135C159.405 25.0435 159.29 25.6124 159.29 26.2219C159.29 26.824 159.405 27.3892 159.639 27.9192C159.872 28.4474 160.227 28.8778 160.705 29.2084C161.183 29.539 161.771 29.7033 162.465 29.7033C163.261 29.7033 163.913 29.4965 164.421 29.081C164.931 28.6654 165.272 28.1371 165.452 27.4926H163.939C163.812 27.7899 163.621 28.0245 163.368 28.1981C163.113 28.3717 162.805 28.4585 162.439 28.4585C162.118 28.4585 161.832 28.381 161.582 28.224C161.051 27.8895 160.839 27.312 160.798 26.7093C160.757 26.1011 160.752 25.4084 160.987 24.8362C161.06 24.658 161.16 24.4912 161.291 24.3491C161.582 24.0314 161.974 23.8726 162.465 23.8726C162.923 23.8726 163.293 24.0148 163.577 24.2974C163.861 24.5818 164.011 25.0288 164.028 25.6383H162.402L162.402 26.6541Z" fill="#030303"/>
<path d="M128.078 22.8938V24.0112H127.975C127.831 23.6897 127.592 23.3961 127.258 23.1283C126.924 22.8623 126.464 22.7294 125.88 22.7294C125.023 22.7294 124.355 23.0489 123.873 23.6879C123.389 24.327 123.149 25.1728 123.149 26.2219C123.149 27.2562 123.385 28.0947 123.86 28.7374C124.334 29.382 124.994 29.7033 125.842 29.7033C126.425 29.7033 126.887 29.5685 127.227 29.297C127.565 29.0255 127.814 28.7171 127.975 28.3699H128.078V29.6018H129.628V22.8937L128.078 22.8938ZM127.639 27.7844C127.461 28.0541 127.232 28.2406 126.951 28.3422C126.782 28.4031 126.595 28.4327 126.388 28.4327C125.829 28.4327 125.409 28.2166 125.13 27.7844C124.85 27.3541 124.711 26.8277 124.711 26.2108C124.711 25.5921 124.848 25.0695 125.123 24.641C125.398 24.2125 125.819 24.0001 126.388 24.0001C126.595 24.0001 126.782 24.0296 126.952 24.0906C127.232 24.1903 127.461 24.3732 127.639 24.641C127.923 25.0695 128.065 25.5921 128.065 26.2108C128.065 26.8277 127.923 27.3541 127.639 27.7844Z" fill="#030303"/>
<path d="M136.461 29.6024H134.747L132.472 26.3619H132.396V29.6024H130.859V20.1497H132.396V25.9431H133.781L136.461 29.6024Z" fill="#030303"/>
<path d="M141.417 22.8938V26.6929C141.417 27.1915 141.289 27.6053 141.034 27.9322C140.844 28.1759 140.589 28.3274 140.27 28.3902C140.163 28.4087 140.05 28.4198 139.93 28.4198C139.481 28.4198 139.13 28.2683 138.875 27.9636C138.622 27.6589 138.495 27.2341 138.495 26.6929V22.8938H136.956V26.933C136.956 27.3836 137.028 27.8195 137.172 28.2424C137.316 28.6654 137.568 29.02 137.922 29.3026C138.279 29.587 138.748 29.7292 139.333 29.7292C139.825 29.7292 140.24 29.6055 140.584 29.3599C140.927 29.1142 141.178 28.8187 141.341 28.4715H141.417V29.6018H142.966V22.8938H141.417Z" fill="#030303"/>
<path d="M147.615 22.8938C147.159 22.8938 146.784 22.9972 146.492 23.2059C146.198 23.4127 145.997 23.6658 145.888 23.9613H145.799V22.8938H144.274V29.6018H145.799V26.1074C145.799 25.4554 145.93 24.99 146.193 24.7111C146.455 24.4322 146.845 24.2919 147.362 24.2919C147.506 24.2919 147.624 24.2974 147.716 24.3103C147.811 24.3233 147.92 24.351 148.047 24.3934L148.112 22.9584C147.942 22.9159 147.776 22.8938 147.615 22.8938Z" fill="#030303"/>
<path d="M151.261 28.5342C150.965 28.5342 150.749 28.49 150.614 28.4013C150.478 28.3126 150.395 28.1907 150.365 28.0393C150.335 27.886 150.321 27.6532 150.321 27.3411V20.0735H148.784V27.6329C148.784 28.0651 148.821 28.4179 148.893 28.6931C148.963 28.9683 149.14 29.1973 149.419 29.3801C149.698 29.5611 150.13 29.6516 150.716 29.6516C151.071 29.6516 151.385 29.6276 151.656 29.5759V28.5084C151.503 28.5269 151.372 28.5342 151.261 28.5342Z" fill="#030303"/>
<path d="M136.115 22.937H134.402V24.4853H136.115V22.937Z" fill="#030303"/>
</g>
<defs>
<clipPath id="clip0_45_15">
<rect width="167.301" height="32" fill="white"/>
</clipPath>
</defs>
</svg>
